<?xml version="1.0" standalone="no"?>
<!DOCTYPE svg PUBLIC "-//W3C//DTD SVG 20010904//EN"
 "http://www.w3.org/TR/2001/REC-SVG-20010904/DTD/svg10.dtd">
<svg version="1.0" xmlns="http://www.w3.org/2000/svg"
 width="700.000000pt" height="700.000000pt" viewBox="0 0 700.000000 700.000000"
 preserveAspectRatio="xMidYMid meet">
<metadata>
Created by potrace 1.14, written by Peter Selinger 2001-2017
</metadata>
<g transform="translate(0.000000,700.000000) scale(0.100000,-0.100000)"
fill="#000000" stroke="none">
<path d="M3025 6769 c-271 -16 -419 -87 -455 -216 -48 -168 136 -362 553 -587
l127 -68 0 -104 c0 -100 -1 -104 -22 -108 -13 -2 -79 -12 -148 -21 -297 -41
-627 -147 -895 -289 -273 -144 -471 -291 -695 -516 -225 -224 -372 -422 -516
-695 -280 -530 -382 -1171 -284 -1774 154 -940 771 -1745 1637 -2136 900 -406
1945 -317 2768 236 425 286 781 707 995 1176 445 977 303 2125 -366 2963 -93
116 -289 316 -402 408 -412 339 -887 552 -1404 628 l-118 18 0 98 c0 54 4 98
9 98 24 0 203 132 270 200 100 99 143 178 149 275 4 58 0 80 -18 123 -58 136
-233 223 -530 266 -177 25 -472 37 -655 25z m424 -250 c268 -19 449 -61 513
-118 28 -25 30 -30 18 -52 -26 -50 -83 -110 -161 -168 l-80 -61 -191 0 -191 0
-93 49 c-196 105 -407 251 -434 300 -9 18 -6 21 29 31 107 29 349 37 590 19z
m421 -1144 c1038 -160 1868 -919 2110 -1930 53 -222 65 -327 65 -595 0 -268
-12 -373 -65 -595 -224 -934 -965 -1672 -1900 -1889 -249 -58 -558 -80 -806
-57 -844 78 -1585 560 -2007 1307 -139 246 -246 564 -294 874 -25 162 -25 558
0 720 117 758 535 1399 1174 1802 337 212 710 337 1138 382 91 9 484 -3 585
-19z"/>
<path d="M3516 4769 c-40 -11 -74 -46 -86 -88 -6 -23 -10 -353 -10 -883 l0
-847 -29 -15 c-48 -26 -75 -83 -64 -139 4 -18 25 -49 48 -72 l43 -41 4 -99 c4
-110 18 -144 69 -171 52 -26 134 -10 158 33 8 15 14 13 53 -22 24 -22 218
-200 432 -395 214 -195 398 -360 410 -367 50 -29 128 -8 161 44 22 33 24 102
3 132 -8 11 -242 228 -519 481 l-504 460 -5 953 c-5 889 -6 955 -23 980 -32
49 -88 72 -141 56z"/>
</g>
</svg>
